<svg width="19" height="17" viewBox="0 0 19 17" fill="none" xmlns="http://www.w3.org/2000/svg">
<path d="M7.38848 0.1875C6.49414 0.1875 5.7 0.758985 5.41797 1.60879L5.09883 2.5625H2.375C1.06504 2.5625 0 3.62754 0 4.9375V14.4375C0 15.7475 1.06504 16.8125 2.375 16.8125H16.625C17.935 16.8125 19 15.7475 19 14.4375V4.9375C19 3.62754 17.935 2.5625 16.625 2.5625H13.9012L13.582 1.60879C13.3 0.758985 12.5059 0.1875 11.6115 0.1875H7.38848ZM7.10645 2.17285C7.14727 2.05039 7.25859 1.96875 7.38848 1.96875H11.6115C11.7377 1.96875 11.8527 2.05039 11.8936 2.17285L12.4131 3.73516C12.5355 4.09883 12.8732 4.34375 13.2592 4.34375H16.625C16.9516 4.34375 17.2188 4.61094 17.2188 4.9375V14.4375C17.2188 14.7641 16.9516 15.0312 16.625 15.0312H2.375C2.04844 15.0312 1.78125 14.7641 1.78125 14.4375V4.9375C1.78125 4.61094 2.04844 4.34375 2.375 4.34375H5.74082C6.12305 4.34375 6.46445 4.09883 6.58691 3.73516L7.10645 2.17285ZM9.5 13.8438C10.0458 13.8438 10.5863 13.7362 11.0905 13.5274C11.5948 13.3185 12.053 13.0124 12.4389 12.6264C12.8249 12.2405 13.131 11.7823 13.3399 11.278C13.5487 10.7738 13.6562 10.2333 13.6562 9.6875C13.6562 9.14169 13.5487 8.60123 13.3399 8.09697C13.131 7.59271 12.8249 7.13453 12.4389 6.74859C12.053 6.36264 11.5948 6.0565 11.0905 5.84763C10.5863 5.63875 10.0458 5.53125 9.5 5.53125C8.95419 5.53125 8.41373 5.63875 7.90947 5.84763C7.40521 6.0565 6.94703 6.36264 6.56109 6.74859C6.17514 7.13453 5.869 7.59271 5.66013 8.09697C5.45125 8.60123 5.34375 9.14169 5.34375 9.6875C5.34375 10.2333 5.45125 10.7738 5.66013 11.278C5.869 11.7823 6.17514 12.2405 6.56109 12.6264C6.94703 13.0124 7.40521 13.3185 7.90947 13.5274C8.41373 13.7362 8.95419 13.8438 9.5 13.8438ZM7.125 9.6875C7.125 9.05761 7.37522 8.45352 7.82062 8.00812C8.26602 7.56272 8.87011 7.3125 9.5 7.3125C10.1299 7.3125 10.734 7.56272 11.1794 8.00812C11.6248 8.45352 11.875 9.05761 11.875 9.6875C11.875 10.3174 11.6248 10.9215 11.1794 11.3669C10.734 11.8123 10.1299 12.0625 9.5 12.0625C8.87011 12.0625 8.26602 11.8123 7.82062 11.3669C7.37522 10.9215 7.125 10.3174 7.125 9.6875Z" fill="#C8C8C8"/>
</svg>
