<svg width="21" height="20" viewBox="0 0 21 20" fill="none" xmlns="http://www.w3.org/2000/svg">
<path d="M20.9945 9.98145C20.9945 10.6494 20.4476 11.1727 19.8277 11.1727H18.661L18.6865 17.1176C18.6865 17.2178 18.6792 17.318 18.6683 17.4182V18.0156C18.6683 18.8357 18.0156 19.5 17.2098 19.5H16.6264C16.5863 19.5 16.5462 19.5 16.5061 19.4963C16.455 19.5 16.404 19.5 16.353 19.5H15.168H14.2929C13.4871 19.5 12.8344 18.8357 12.8344 18.0156V17.125V14.75C12.8344 14.0932 12.313 13.5625 11.6677 13.5625H9.33413C8.68876 13.5625 8.16736 14.0932 8.16736 14.75V17.125V18.0156C8.16736 18.8357 7.5147 19.5 6.7089 19.5H5.83383H4.67071C4.61602 19.5 4.56133 19.4963 4.50663 19.4926C4.46288 19.4963 4.41913 19.5 4.37537 19.5H3.79199C2.98619 19.5 2.33353 18.8357 2.33353 18.0156V13.8594C2.33353 13.826 2.33353 13.7889 2.33718 13.7555V11.1727H1.16677C0.51046 11.1727 0 10.6531 0 9.98145C0 9.64746 0.109384 9.35059 0.364614 9.09082L9.71333 0.796875C9.96856 0.537109 10.2602 0.5 10.5155 0.5C10.7707 0.5 11.0624 0.574219 11.2812 0.759766L20.5934 9.09082C20.8851 9.35059 21.031 9.64746 20.9945 9.98145Z" fill="#2A2538"/>
</svg>
