<svg width="104" height="103" viewBox="0 0 104 103" fill="none" xmlns="http://www.w3.org/2000/svg">
<g clip-path="url(#clip0_10_953)">
<path d="M60.625 43.9375C61.0203 43.9375 61.3438 44.2469 61.3438 44.625V58.3664L61.1191 58.0871L55.0098 50.5246C54.8076 50.2711 54.4887 50.125 54.1562 50.125C53.8238 50.125 53.5094 50.2711 53.3027 50.5246L49.5742 55.1395L48.2041 53.3047C48.002 53.034 47.6785 52.875 47.3281 52.875C46.9777 52.875 46.6543 53.034 46.4521 53.309L42.8584 58.1215L42.6562 58.3879V58.375V44.625C42.6562 44.2469 42.9797 43.9375 43.375 43.9375H60.625ZM43.375 41.875C41.7893 41.875 40.5 43.1082 40.5 44.625V58.375C40.5 59.8918 41.7893 61.125 43.375 61.125H60.625C62.2107 61.125 63.5 59.8918 63.5 58.375V44.625C63.5 43.1082 62.2107 41.875 60.625 41.875H43.375ZM46.9688 50.125C47.2519 50.125 47.5323 50.0717 47.7939 49.968C48.0555 49.8644 48.2932 49.7124 48.4934 49.5209C48.6937 49.3294 48.8525 49.102 48.9609 48.8518C49.0692 48.6016 49.125 48.3334 49.125 48.0625C49.125 47.7916 49.0692 47.5234 48.9609 47.2732C48.8525 47.023 48.6937 46.7956 48.4934 46.6041C48.2932 46.4126 48.0555 46.2606 47.7939 46.157C47.5323 46.0533 47.2519 46 46.9688 46C46.6856 46 46.4052 46.0533 46.1436 46.157C45.882 46.2606 45.6443 46.4126 45.4441 46.6041C45.2438 46.7956 45.085 47.023 44.9766 47.2732C44.8683 47.5234 44.8125 47.7916 44.8125 48.0625C44.8125 48.3334 44.8683 48.6016 44.9766 48.8518C45.085 49.102 45.2438 49.3294 45.4441 49.5209C45.6443 49.7124 45.882 49.8644 46.1436 49.968C46.4052 50.0717 46.6856 50.125 46.9688 50.125Z" fill="black"/>
</g>
<rect x="1" y="1" width="102" height="101" rx="9.5" stroke="#2A2538"/>
<defs>
<clipPath id="clip0_10_953">
<rect width="23" height="22" fill="white" transform="translate(40.5 40.5)"/>
</clipPath>
</defs>
</svg>
