<svg width="164" height="118" viewBox="0 0 164 118" fill="none" xmlns="http://www.w3.org/2000/svg">
<path d="M19.5849 98.8458V20.6664H48.4382V31.4784C50.9996 28.0508 54.3897 25.1525 58.6085 22.7834C62.8272 20.3639 67.9751 19.1542 74.0522 19.1542C76.5633 19.1542 79.1247 19.6331 81.7363 20.5908C84.3982 21.4981 86.9093 22.859 89.2698 24.6736C91.6806 26.4882 93.7397 28.7565 95.4473 31.4784C98.0087 28.1516 101.323 25.2785 105.392 22.859C109.46 20.3891 113.955 19.1542 118.877 19.1542C121.89 19.1542 124.903 19.7087 127.917 20.8176C130.93 21.8761 133.667 23.5395 136.128 25.8078C138.639 28.0256 140.648 30.8736 142.155 34.3516C143.662 37.8296 144.415 41.988 144.415 46.827V98.8458H115.034V50.8343C115.034 49.1205 114.557 47.6587 113.603 46.449C112.699 45.2392 111.519 44.3319 110.062 43.727C108.656 43.0718 107.2 42.7441 105.693 42.7441C104.236 42.7441 102.805 43.0718 101.399 43.727C99.9925 44.3319 98.8123 45.2392 97.858 46.449C96.954 47.6587 96.502 49.1205 96.502 50.8343V98.8458H67.272V50.8343C67.272 49.1205 66.82 47.6587 65.916 46.449C65.0119 45.2392 63.8568 44.3319 62.4506 43.727C61.0443 43.0718 59.5878 42.7441 58.0811 42.7441C56.6246 42.7441 55.1933 43.0718 53.787 43.727C52.3808 44.3319 51.2005 45.2392 50.2463 46.449C49.3422 47.6587 48.8902 49.1205 48.8902 50.8343V98.8458H19.5849Z" fill="#FEFFF5"/>
<path fill-rule="evenodd" clip-rule="evenodd" d="M0.5 118V1.51217H60.8629C65.184 0.457516 69.6206 0 74.0522 0C78.9491 0 83.6553 0.926106 88.082 2.5256C90.8609 3.4884 93.5018 4.71622 95.9991 6.17936C103.027 2.03074 110.788 0 118.877 0C124.227 0 129.416 0.98431 134.358 2.78683C139.814 4.72448 144.68 7.7183 148.892 11.567C153.687 15.8458 157.204 21.0525 159.657 26.7143L142.155 34.3516C140.648 30.8736 138.639 28.0256 136.128 25.8078C133.667 23.5395 130.93 21.8761 127.917 20.8176C124.903 19.7087 121.89 19.1542 118.877 19.1542C116.112 19.1542 113.482 19.5439 110.986 20.3233C109.039 20.9314 107.174 21.7766 105.392 22.859C104.967 23.1117 104.55 23.3693 104.142 23.6318C100.874 25.733 98.1313 28.151 95.9154 30.8859C95.8179 31.0062 95.7215 31.127 95.6261 31.2485C95.5661 31.3249 95.5065 31.4015 95.4473 31.4784C94.4137 29.8308 93.2512 28.3494 91.96 27.0342C91.118 26.1767 90.2213 25.3898 89.2698 24.6736C86.9093 22.859 84.3982 21.4981 81.7363 20.5908C81.5354 20.5171 81.3347 20.4462 81.1343 20.3782C78.7308 19.5622 76.3701 19.1542 74.0522 19.1542C71.7415 19.1542 69.5651 19.3291 67.5231 19.6789C66.0985 19.9229 64.7393 20.2521 63.4455 20.6664C61.7164 21.22 60.104 21.9257 58.6085 22.7834C58.1339 23.0499 57.6699 23.3231 57.2164 23.6029C53.677 25.7868 50.7761 28.3785 48.5137 31.3779C48.4884 31.4114 48.4633 31.4449 48.4382 31.4784V20.6664H19.5849V98.8458H48.8902V50.8343C48.8902 49.1205 49.3422 47.6587 50.2463 46.449C51.2005 45.2392 52.3808 44.3319 53.787 43.727C55.1933 43.0718 56.6246 42.7441 58.0811 42.7441C59.5878 42.7441 61.0443 43.0718 62.4506 43.727C62.625 43.8021 62.7957 43.8818 62.9624 43.9662C64.1396 44.5617 65.1241 45.3893 65.916 46.449C66.82 47.6587 67.272 49.1205 67.272 50.8343V98.8458H96.502V50.8343C96.502 49.1205 96.954 47.6587 97.858 46.449C98.8123 45.2392 99.9925 44.3319 101.399 43.727C102.805 43.0718 104.236 42.7441 105.693 42.7441C107.2 42.7441 108.656 43.0718 110.062 43.727C110.081 43.7347 110.099 43.7425 110.118 43.7502C111.549 44.355 112.711 45.2546 113.603 46.449C114.557 47.6587 115.034 49.1205 115.034 50.8343V98.8458H144.415V46.827C144.415 41.988 143.662 37.8296 142.155 34.3516L159.657 26.7143C162.453 33.1686 163.5 40.0577 163.5 46.827V118H0.5Z" fill="#2A2538"/>
</svg>
