<svg width="19" height="17" viewBox="0 0 19 17" fill="none" xmlns="http://www.w3.org/2000/svg">
<path d="M2.375 1.21429C2.375 0.542634 1.84434 0 1.1875 0C0.530664 0 0 0.542634 0 1.21429V13.9643C0 15.6415 1.32852 17 2.96875 17H17.8125C18.4693 17 19 16.4574 19 15.7857C19 15.1141 18.4693 14.5714 17.8125 14.5714H2.96875C2.64219 14.5714 2.375 14.2982 2.375 13.9643V1.21429ZM17.4637 4.50045C17.9275 4.02612 17.9275 3.2558 17.4637 2.78147C16.9998 2.30714 16.2465 2.30714 15.7826 2.78147L11.875 6.78103L9.74492 4.6029C9.28105 4.12857 8.52773 4.12857 8.06387 4.6029L3.90762 8.8529C3.44375 9.32723 3.44375 10.0975 3.90762 10.5719C4.37148 11.0462 5.1248 11.0462 5.58867 10.5719L8.90625 7.18326L11.0363 9.36138C11.5002 9.83572 12.2535 9.83572 12.7174 9.36138L17.4674 4.50424L17.4637 4.50045Z" fill="#193A3F"/>
</svg>
