<svg width="22" height="22" viewBox="0 0 22 22" fill="none" xmlns="http://www.w3.org/2000/svg">
<path fill-rule="evenodd" clip-rule="evenodd" d="M11 22C13.7848 22 16.4555 20.8411 18.4246 18.7782C20.3938 16.7153 21.5 13.9174 21.5 11C21.5 8.08262 20.3938 5.28473 18.4246 3.22183C16.4555 1.15893 13.7848 0 11 0C8.21523 0 5.54451 1.15893 3.57538 3.22183C1.60625 5.28473 0.5 8.08262 0.5 11C0.5 13.9174 1.60625 16.7153 3.57538 18.7782C5.54451 20.8411 8.21523 22 11 22ZM2.02168 8.9418C1.88633 9.60352 1.8125 10.2953 1.8125 11C1.8125 16.3147 5.92554 20.6241 10.9985 20.625C11.3147 20.6249 11.6272 20.6081 11.9352 20.5753C16.5677 20.0824 20.1834 15.983 20.1834 11C20.1834 10.2953 20.1137 9.60352 19.9742 8.9418L19.7937 10.0762C19.5846 11.4039 18.4895 12.375 17.2057 12.375H13.9777C12.6939 12.375 11.5988 11.4039 11.3896 10.0762L11.0615 8.01367C11.0369 7.86328 11.0246 7.71289 11.0246 7.5625H10.9713C10.9713 7.70859 10.959 7.86328 10.9344 8.01367L10.6062 10.0762C10.3971 11.4039 9.30195 12.375 8.01816 12.375H4.79023C3.50645 12.375 2.41133 11.4039 2.20215 10.0762L2.02168 8.9418ZM8.35039 4.8125C9.33066 4.8125 10.1715 5.37109 10.6227 6.1875H11.3814C11.8285 5.37109 12.6693 4.8125 13.6537 4.8125H17.5379C17.7266 4.8125 17.9111 4.83398 18.0875 4.87266C16.4018 2.73711 13.8506 1.375 11 1.375C8.14941 1.375 5.59824 2.73711 3.9166 4.87266C4.09297 4.83398 4.27754 4.8125 4.46621 4.8125H8.35039ZM13.6537 6.1875C12.8416 6.1875 12.2223 6.95234 12.3576 7.79023L12.6857 9.85273C12.7596 10.3254 13.0631 10.7078 13.4609 10.8883L15.323 8.9375H14.2812C14.0146 8.9375 13.7727 8.76563 13.6742 8.51211C13.5758 8.2586 13.6291 7.96211 13.8178 7.76445L15.323 6.1875H13.6537ZM17.3697 8.73555L15.2082 11H17.2057C17.8496 11 18.3951 10.5145 18.5018 9.85273L18.8299 7.79023C18.9611 6.95234 18.3459 6.1875 17.5338 6.1875H17.177L15.8645 7.5625H16.9062C17.1729 7.5625 17.4148 7.73438 17.5133 7.98789C17.6117 8.24141 17.5584 8.53789 17.3697 8.73555ZM6.13555 6.1875H4.46621C3.6541 6.1875 3.03477 6.95234 3.17012 7.79023L3.49824 9.85273C3.57207 10.3254 3.87559 10.7078 4.27344 10.8883L6.13555 8.9375H5.09375C4.82715 8.9375 4.58516 8.76563 4.48672 8.51211C4.38828 8.2586 4.4416 7.96211 4.63027 7.76445L6.13555 6.1875ZM8.32988 7.98789C8.42832 8.24141 8.375 8.53789 8.18633 8.73555H8.18223L6.0207 11H8.01816C8.66211 11 9.20762 10.5145 9.31426 9.85273L9.64238 7.79023C9.77363 6.95234 9.1584 6.1875 8.34629 6.1875H7.98945L6.67695 7.5625H7.72285C7.98945 7.5625 8.23145 7.73438 8.32988 7.98789Z" fill="#2A2538"/>
<path fill-rule="evenodd" clip-rule="evenodd" d="M1.8125 11C1.8125 10.2953 1.88633 9.60352 2.02168 8.9418L2.20215 10.0762C2.41133 11.4039 3.50645 12.375 4.79023 12.375H8.01816C9.30195 12.375 10.3971 11.4039 10.6062 10.0762L10.9344 8.01367C10.959 7.86328 10.9713 7.70859 10.9713 7.5625H11.0246C11.0246 7.71289 11.0369 7.86328 11.0615 8.01367L11.3896 10.0762C11.5988 11.4039 12.6939 12.375 13.9777 12.375H17.2057C18.4895 12.375 19.5846 11.4039 19.7937 10.0762L19.9742 8.9418C20.1137 9.60352 20.1834 10.2953 20.1834 11C20.1834 15.983 16.5677 20.0824 11.9352 20.5753C11.6272 20.6081 11.3147 20.6249 10.9985 20.625C5.92554 20.6241 1.8125 16.3147 1.8125 11ZM6.23809 15.5762C6.0002 15.2883 6.02891 14.8543 6.30371 14.6051C6.57852 14.3559 6.99277 14.3859 7.23066 14.6738C7.96484 15.5633 9.21992 16.5 11 16.5C12.7801 16.5 14.0352 15.5633 14.7693 14.6738C15.0072 14.3859 15.4215 14.3559 15.6963 14.6051C15.9711 14.8543 15.9998 15.2883 15.7619 15.5762C14.8473 16.6762 13.26 17.875 11 17.875C8.74004 17.875 7.14863 16.6805 6.23809 15.5762Z" fill="#E9E8E4"/>
<path d="M6.30371 14.6051C6.02891 14.8543 6.0002 15.2883 6.23809 15.5762C7.14863 16.6805 8.74004 17.875 11 17.875C13.26 17.875 14.8473 16.6762 15.7619 15.5762C15.9998 15.2883 15.9711 14.8543 15.6963 14.6051C15.4215 14.3559 15.0072 14.3859 14.7693 14.6738C14.0352 15.5633 12.7801 16.5 11 16.5C9.21992 16.5 7.96484 15.5633 7.23066 14.6738C6.99277 14.3859 6.57852 14.3559 6.30371 14.6051Z" fill="#2A2538"/>
<path d="M8.18633 8.73555C8.375 8.53789 8.42832 8.24141 8.32988 7.98789C8.23145 7.73438 7.98945 7.5625 7.72285 7.5625H6.67695L7.98945 6.1875H8.34629C9.1584 6.1875 9.77363 6.95234 9.64238 7.79023L9.31426 9.85273C9.20762 10.5145 8.66211 11 8.01816 11H6.0207L8.18223 8.73555H8.18633Z" fill="#EBC5C5"/>
</svg>
