<svg width="20" height="20" viewBox="0 0 20 20" fill="none" xmlns="http://www.w3.org/2000/svg">
<path d="M18.125 10C18.125 7.84512 17.269 5.77849 15.7452 4.25476C14.2215 2.73102 12.1549 1.875 10 1.875C7.84512 1.875 5.77849 2.73102 4.25476 4.25476C2.73102 5.77849 1.875 7.84512 1.875 10C1.875 12.1549 2.73102 14.2215 4.25476 15.7452C5.77849 17.269 7.84512 18.125 10 18.125C12.1549 18.125 14.2215 17.269 15.7452 15.7452C17.269 14.2215 18.125 12.1549 18.125 10ZM0 10C0 7.34784 1.05357 4.8043 2.92893 2.92893C4.8043 1.05357 7.34784 0 10 0C12.6522 0 15.1957 1.05357 17.0711 2.92893C18.9464 4.8043 20 7.34784 20 10C20 12.6522 18.9464 15.1957 17.0711 17.0711C15.1957 18.9464 12.6522 20 10 20C7.34784 20 4.8043 18.9464 2.92893 17.0711C1.05357 15.1957 0 12.6522 0 10ZM6.9375 12.4258C7.53125 13.0664 8.54688 13.75 10 13.75C11.4531 13.75 12.4688 13.0664 13.0625 12.4258C13.4141 12.0469 14.0078 12.0195 14.3867 12.3711C14.7656 12.7227 14.793 13.3164 14.4414 13.6953C13.582 14.625 12.0977 15.625 10.0039 15.625C7.91016 15.625 6.42188 14.6289 5.56641 13.6953C5.21484 13.3164 5.23828 12.7227 5.62109 12.3711C6.00391 12.0195 6.59375 12.043 6.94531 12.4258H6.9375ZM5.64062 8.125C5.64062 7.79348 5.77232 7.47554 6.00674 7.24112C6.24116 7.0067 6.5591 6.875 6.89062 6.875C7.22215 6.875 7.54009 7.0067 7.77451 7.24112C8.00893 7.47554 8.14062 7.79348 8.14062 8.125C8.14062 8.45652 8.00893 8.77446 7.77451 9.00888C7.54009 9.2433 7.22215 9.375 6.89062 9.375C6.5591 9.375 6.24116 9.2433 6.00674 9.00888C5.77232 8.77446 5.64062 8.45652 5.64062 8.125ZM13.1406 6.875C13.4721 6.875 13.7901 7.0067 14.0245 7.24112C14.2589 7.47554 14.3906 7.79348 14.3906 8.125C14.3906 8.45652 14.2589 8.77446 14.0245 9.00888C13.7901 9.2433 13.4721 9.375 13.1406 9.375C12.8091 9.375 12.4912 9.2433 12.2567 9.00888C12.0223 8.77446 11.8906 8.45652 11.8906 8.125C11.8906 7.79348 12.0223 7.47554 12.2567 7.24112C12.4912 7.0067 12.8091 6.875 13.1406 6.875Z" fill="#C8C8C8"/>
</svg>
