<svg width="13" height="11" viewBox="0 0 13 11" fill="none" xmlns="http://www.w3.org/2000/svg">
<path d="M7.07384 0.470306C6.75646 0.177338 6.24103 0.177338 5.92364 0.470306L1.04865 4.97031C0.731262 5.26327 0.731262 5.73906 1.04865 6.03203C1.36603 6.32499 1.88146 6.32499 2.19884 6.03203L6.50001 2.06171L10.8012 6.02968C11.1186 6.32265 11.634 6.32265 11.9514 6.02968C12.2688 5.73671 12.2688 5.26093 11.9514 4.96796L7.07638 0.467963L7.07384 0.470306ZM11.9488 9.47031L7.07384 4.97031C6.75646 4.67734 6.24103 4.67734 5.92364 4.97031L1.04865 9.47031C0.731262 9.76327 0.731262 10.2391 1.04865 10.532C1.36603 10.825 1.88146 10.825 2.19884 10.532L6.50001 6.56171L10.8012 10.5297C11.1186 10.8226 11.634 10.8226 11.9514 10.5297C12.2688 10.2367 12.2688 9.76093 11.9514 9.46796L11.9488 9.47031Z" fill="#193A3F"/>
</svg>
